# xmcd
#
# Track frame offsets:
# 150
# 11982
# 23930
# 36685
# 50294
# 62218
# 75845
# 87949
# 101785
# 114689
# 125220
# 142175
# 157013
#
# Disc length: 2265 seconds
#
#
# Revision: 0
# Processed by: cddbd v1.5.2PL0 Copyright (c) Steve Scherf et al.
# Submitted via: FreeRIP 2.951 
#
DISCID=bd08d70d
DTITLE=Mario Reyes - Miedo - Pistas
DYEAR=1900
DGENRE=Ranchera
TTITLE0=Aunque me duela el alma
TTITLE1=Ayudame dios mio
TTITLE2=te sigo amando
TTITLE3=Miedo
TTITLE4=Con la mitad de mi vida
TTITLE5=Tu traición
TTITLE6=La numero cien
TTITLE7=Vamos a p`laticar
TTITLE8=Nos estorbo la ropa
TTITLE9=Chacha linda
TTITLE10=Y volvere
TTITLE11=En tu pelo
TTITLE12=Recuerdame bonito
EXTD=
EXTT0=
EXTT1=
EXTT2=
EXTT3=
EXTT4=
EXTT5=
EXTT6=
EXTT7=
EXTT8=
EXTT9=
EXTT10=
EXTT11=
EXTT12=
PLAYORDER=
